# xmcd
#
# Track frame offsets: 
#        183
#        24558
#        71383
#        99058
#        138658
#        172358
#        216345
#        258583
#
# Disc length: 3784 seconds
#
# Revision: 1
# Processed by: cddbd v1.5.2PL0 Copyright (c) Steve Scherf et al.
# Submitted via: ExactAudioCopy v0.99pb5
#
DISCID=750ec608
DTITLE=George Mraz Trio - Catching Up
DYEAR=1992
DGENRE=Jazz
TTITLE0=Beautiful Love (Victor Young)
TTITLE1=Wisteria (George Mraz)
TTITLE2=Solar (Miles Davis)
TTITLE3=Young And Foolish (Albert Hague, Arnold B. Horwitt)
TTITLE4=Rectilinear (Richie Beirach)
TTITLE5=For B. C. (George Mraz)
TTITLE6=Nardis (Miles Davis)
TTITLE7=Unnamed Ballad (George Mraz)
EXTD=YEAR: 1992
EXTT0=
EXTT1=
EXTT2=
EXTT3=
EXTT4=
EXTT5=
EXTT6=
EXTT7=
PLAYORDER=
